<svg width="32" height="32" viewBox="0 0 32 32" fill="none" xmlns="http://www.w3.org/2000/svg">
<circle cx="16" cy="16" r="15" fill="white" stroke="#E0E0E0" stroke-width="2"/>
<path d="M18.139 21.7631L23.3784 16.5237C23.4274 16.4676 23.4678 16.4045 23.4982 16.3365L23.5431 16.2767C23.5742 16.1851 23.5894 16.0889 23.588 15.9922C23.595 15.9301 23.595 15.8673 23.588 15.8051L23.588 15.7078C23.5606 15.6594 23.528 15.6142 23.4907 15.5731L23.4233 15.4608L18.1839 10.2214C18.1143 10.1512 18.0315 10.0956 17.9403 10.0576C17.8491 10.0196 17.7513 10 17.6525 10C17.5537 10 17.4558 10.0196 17.3646 10.0576C17.2734 10.0956 17.1906 10.1512 17.1211 10.2214C17.0509 10.291 16.9952 10.3738 16.9572 10.465C16.9192 10.5562 16.8997 10.654 16.8997 10.7528C16.8997 10.8516 16.9192 10.9495 16.9572 11.0407C16.9952 11.1319 17.0509 11.2147 17.1211 11.2843L21.0581 15.2437L9.74846 15.2437C9.54995 15.2437 9.35957 15.3226 9.2192 15.463C9.07883 15.6033 8.99997 15.7937 8.99997 15.9922C8.99997 16.1907 9.07883 16.3811 9.2192 16.5215C9.35957 16.6619 9.54995 16.7407 9.74846 16.7407L21.0282 16.7407L17.0462 20.7002C16.976 20.7698 16.9204 20.8526 16.8824 20.9438C16.8444 21.035 16.8248 21.1328 16.8248 21.2316C16.8248 21.3304 16.8444 21.4283 16.8824 21.5195C16.9204 21.6107 16.976 21.6935 17.0462 21.7631C17.1162 21.8378 17.2008 21.8975 17.2948 21.9382C17.3888 21.979 17.4902 22 17.5926 22C17.695 22 17.7964 21.979 17.8904 21.9382C17.9844 21.8975 18.069 21.8378 18.139 21.7631Z" fill="#006430"/>
</svg>
