<svg width="32" height="32" viewBox="0 0 32 32" fill="none" xmlns="http://www.w3.org/2000/svg">
<circle cx="16" cy="16" r="15" fill="white" stroke="#E0E0E0" stroke-width="2"/>
<path d="M14.4543 10.2369L9.21486 15.4763C9.16586 15.5324 9.12549 15.5955 9.0951 15.6635L9.05019 15.7233C9.01908 15.8149 9.00389 15.9111 9.00528 16.0078C8.99824 16.0699 8.99824 16.1327 9.00528 16.1949L9.00528 16.2922C9.03262 16.3406 9.06525 16.3858 9.10259 16.4269L9.16995 16.5392L14.4094 21.7786C14.4789 21.8488 14.5617 21.9044 14.6529 21.9424C14.7441 21.9804 14.842 22 14.9408 22C15.0396 22 15.1374 21.9804 15.2286 21.9424C15.3198 21.9044 15.4026 21.8488 15.4722 21.7786C15.5424 21.709 15.598 21.6262 15.636 21.535C15.674 21.4438 15.6936 21.346 15.6936 21.2472C15.6936 21.1484 15.674 21.0505 15.636 20.9593C15.598 20.8681 15.5424 20.7853 15.4722 20.7157L11.5352 16.7563L22.8448 16.7563C23.0433 16.7563 23.2337 16.6774 23.3741 16.537C23.5144 16.3967 23.5933 16.2063 23.5933 16.0078C23.5933 15.8093 23.5144 15.6189 23.3741 15.4785C23.2337 15.3381 23.0433 15.2593 22.8448 15.2593L11.5651 15.2593L15.5471 11.2998C15.6172 11.2302 15.6729 11.1474 15.7109 11.0562C15.7489 10.965 15.7685 10.8672 15.7685 10.7684C15.7685 10.6696 15.7489 10.5717 15.7109 10.4805C15.6729 10.3893 15.6172 10.3065 15.5471 10.2369C15.477 10.1622 15.3924 10.1025 15.2984 10.0618C15.2045 10.021 15.1031 10 15.0007 10C14.8982 10 14.7969 10.021 14.7029 10.0618C14.6089 10.1025 14.5243 10.1622 14.4543 10.2369Z" fill="#006430"/>
</svg>
