<svg width="20" height="20" viewBox="0 0 20 20" fill="none" xmlns="http://www.w3.org/2000/svg">
<g clip-path="url(#clip0)">
<path d="M16.3639 5.45431L11.8182 10L16.3639 14.5457C16.605 14.7868 16.7404 15.1138 16.7404 15.4548C16.7404 15.7958 16.605 16.1228 16.3639 16.364C16.1227 16.6051 15.7957 16.7405 15.4547 16.7405C15.1137 16.7405 14.7867 16.6051 14.5456 16.364L9.9999 11.8183L5.45421 16.364C5.21309 16.6051 4.88606 16.7405 4.54507 16.7405C4.20408 16.7405 3.87705 16.6051 3.63593 16.364C3.39482 16.1228 3.25936 15.7958 3.25936 15.4548C3.25936 15.1138 3.39482 14.7868 3.63593 14.5457L8.18162 10L3.63593 5.45431C3.39482 5.2132 3.25936 4.88617 3.25936 4.54518C3.25936 4.20418 3.39482 3.87716 3.63593 3.63604C3.87705 3.39492 4.20408 3.25946 4.54507 3.25946C4.88606 3.25946 5.21309 3.39492 5.45421 3.63604L9.9999 8.18173L14.5456 3.63604C14.7867 3.39492 15.1137 3.25946 15.4547 3.25946C15.7957 3.25946 16.1227 3.39492 16.3639 3.63604C16.605 3.87716 16.7404 4.20418 16.7404 4.54518C16.7404 4.88617 16.605 5.2132 16.3639 5.45431Z" fill="black"/>
</g>
<defs>
<clipPath id="clip0">
<rect width="20" height="20" fill="white"/>
</clipPath>
</defs>
</svg>
