<svg width="344" height="122" viewBox="0 0 344 122" fill="none" xmlns="http://www.w3.org/2000/svg">
<g clip-path="url(#clip0)">
<path d="M5.94813 11.5189C4.29587 11.5189 2.97406 10.879 1.65226 9.91928C0.660903 8.63961 0 7.35993 0 5.76034C0 4.16074 0.660903 2.88106 1.65226 1.60139C3.96542 -0.638044 7.93084 -0.638044 9.91355 1.60139C10.9049 2.56115 11.5658 4.16074 11.5658 5.76034C11.5658 7.35993 10.9049 8.63961 9.91355 9.91928C8.92219 10.879 7.60038 11.5189 5.94813 11.5189Z" fill="#FFD026"/>
<path d="M301.709 5.7556C301.709 2.55641 304.352 -0.00293732 307.657 -0.00293732C310.961 -0.00293732 313.605 2.55641 313.605 5.7556C313.605 8.95479 310.961 11.5141 307.657 11.5141C304.683 11.5141 301.709 8.95479 301.709 5.7556ZM271.637 5.7556C271.637 2.55641 274.281 -0.00293732 277.586 -0.00293732C280.89 -0.00293732 283.534 2.55641 283.534 5.7556C283.534 8.95479 280.89 11.5141 277.586 11.5141C274.281 11.5141 271.637 8.95479 271.637 5.7556ZM241.566 5.7556C241.566 2.55641 244.21 -0.00293732 247.514 -0.00293732C250.819 -0.00293732 253.463 2.55641 253.463 5.7556C253.463 8.95479 250.819 11.5141 247.514 11.5141C244.21 11.5141 241.566 8.95479 241.566 5.7556ZM211.165 5.7556C211.165 2.55641 213.808 -0.00293732 217.113 -0.00293732C220.417 -0.00293732 223.061 2.55641 223.061 5.7556C223.061 8.95479 220.417 11.5141 217.113 11.5141C213.808 11.5141 211.165 8.95479 211.165 5.7556ZM181.094 5.7556C181.094 2.55641 183.737 -0.00293732 187.042 -0.00293732C190.346 -0.00293732 192.99 2.55641 192.99 5.7556C192.99 8.95479 190.346 11.5141 187.042 11.5141C183.737 11.5141 181.094 8.95479 181.094 5.7556ZM151.023 5.7556C151.023 2.55641 153.666 -0.00293732 156.971 -0.00293732C160.275 -0.00293732 162.919 2.55641 162.919 5.7556C162.919 8.95479 160.275 11.5141 156.971 11.5141C153.666 11.5141 151.023 8.95479 151.023 5.7556ZM120.621 5.7556C120.621 2.55641 123.265 -0.00293732 126.569 -0.00293732C129.874 -0.00293732 132.517 2.55641 132.517 5.7556C132.517 8.95479 129.874 11.5141 126.569 11.5141C123.265 11.5141 120.621 8.95479 120.621 5.7556ZM90.55 5.7556C90.55 2.55641 93.1936 -0.00293732 96.4981 -0.00293732C99.8027 -0.00293732 102.446 2.55641 102.446 5.7556C102.446 8.95479 99.8027 11.5141 96.4981 11.5141C93.1936 11.5141 90.55 8.95479 90.55 5.7556ZM60.4789 5.7556C60.4789 2.55641 63.1225 -0.00293732 66.4271 -0.00293732C69.7316 -0.00293732 72.3752 2.55641 72.3752 5.7556C72.3752 8.95479 69.7316 11.5141 66.4271 11.5141C63.1225 11.5141 60.4789 8.95479 60.4789 5.7556ZM30.0774 5.7556C30.0774 2.55641 32.721 -0.00293732 36.0255 -0.00293732C39.33 -0.00293732 41.9736 2.55641 41.9736 5.7556C41.9736 8.95479 39.33 11.5141 36.0255 11.5141C32.721 11.5141 30.0774 8.95479 30.0774 5.7556Z" fill="#FFD026"/>
<path d="M338.053 11.5189C336.4 11.5189 335.078 10.879 333.757 9.91928C332.765 8.95953 332.104 7.35993 332.104 5.76034C332.104 4.16074 332.765 2.88106 333.757 1.60139C336.07 -0.638044 340.035 -0.638044 342.018 1.60139C343.009 2.56115 343.67 4.16074 343.67 5.76034C343.67 7.35993 343.009 8.63961 342.018 9.91928C341.027 10.879 339.374 11.5189 338.053 11.5189Z" fill="#FFD026"/>
<path d="M5.94813 43.1852C4.29587 43.1852 2.97406 42.5454 1.65226 41.5856C0.660903 40.3059 0 38.7063 0 37.4267C0 35.8271 0.660903 34.5474 1.65226 33.2677C3.96542 31.0283 7.93084 31.0283 9.91355 33.2677C10.9049 34.2275 11.5658 35.8271 11.5658 37.4267C11.5658 39.0263 10.9049 40.3059 9.91355 41.5856C8.92219 42.5454 7.60038 43.1852 5.94813 43.1852Z" fill="#FFD026"/>
<path d="M301.709 37.4219C301.709 34.2227 304.352 31.6634 307.657 31.6634C310.961 31.6634 313.605 34.2227 313.605 37.4219C313.605 40.6211 310.961 43.1805 307.657 43.1805C304.683 43.1805 301.709 40.6211 301.709 37.4219ZM271.637 37.4219C271.637 34.2227 274.281 31.6634 277.586 31.6634C280.89 31.6634 283.534 34.2227 283.534 37.4219C283.534 40.6211 280.89 43.1805 277.586 43.1805C274.281 43.1805 271.637 40.6211 271.637 37.4219ZM241.566 37.4219C241.566 34.2227 244.21 31.6634 247.514 31.6634C250.819 31.6634 253.463 34.2227 253.463 37.4219C253.463 40.6211 250.819 43.1805 247.514 43.1805C244.21 43.1805 241.566 40.6211 241.566 37.4219ZM211.495 37.4219C211.495 34.2227 214.139 31.6634 217.443 31.6634C220.748 31.6634 223.392 34.2227 223.392 37.4219C223.392 40.6211 220.748 43.1805 217.443 43.1805C213.808 43.1805 211.165 40.6211 211.495 37.4219ZM181.094 37.4219C181.094 34.2227 183.737 31.6634 187.042 31.6634C190.346 31.6634 192.99 34.2227 192.99 37.4219C192.99 40.6211 190.346 43.1805 187.042 43.1805C183.737 43.1805 181.094 40.6211 181.094 37.4219ZM151.023 37.4219C151.023 34.2227 153.666 31.6634 156.971 31.6634C160.275 31.6634 162.919 34.2227 162.919 37.4219C162.919 40.6211 160.275 43.1805 156.971 43.1805C153.666 43.1805 151.023 40.6211 151.023 37.4219ZM120.621 37.4219C120.621 34.2227 123.265 31.6634 126.569 31.6634C129.874 31.6634 132.517 34.2227 132.517 37.4219C132.517 40.6211 129.874 43.1805 126.569 43.1805C123.265 43.1805 120.621 40.6211 120.621 37.4219ZM90.55 37.4219C90.55 34.2227 93.1936 31.6634 96.4981 31.6634C99.8027 31.6634 102.446 34.2227 102.446 37.4219C102.446 40.6211 99.8027 43.1805 96.4981 43.1805C93.1936 43.1805 90.55 40.6211 90.55 37.4219ZM60.4789 37.4219C60.4789 34.2227 63.1225 31.6634 66.4271 31.6634C69.7316 31.6634 72.3752 34.2227 72.3752 37.4219C72.3752 40.6211 69.7316 43.1805 66.4271 43.1805C63.1225 43.1805 60.4789 40.6211 60.4789 37.4219ZM30.0774 37.4219C30.0774 34.2227 32.721 31.6634 36.0255 31.6634C39.33 31.6634 41.9736 34.2227 41.9736 37.4219C41.9736 40.6211 39.33 43.1805 36.0255 43.1805C32.721 43.1805 30.0774 40.6211 30.0774 37.4219Z" fill="#FFD026"/>
<path d="M338.053 43.1852C336.4 43.1852 335.078 42.5454 333.757 41.5856C332.765 40.6259 332.104 39.0263 332.104 37.4267C332.104 35.8271 332.765 34.5474 333.757 33.2677C336.07 31.0283 340.035 31.0283 342.018 33.2677C343.009 34.2275 343.67 35.8271 343.67 37.4267C343.67 39.0263 343.009 40.3059 342.018 41.5856C341.027 42.5454 339.374 43.1852 338.053 43.1852Z" fill="#FFD026"/>
<path d="M5.94813 73.5838C4.29587 73.5838 2.97406 72.9439 1.65226 71.9842C0.660903 71.0244 0 69.4248 0 67.8252C0 66.2257 0.660903 64.946 1.65226 63.6663C3.96542 61.4269 7.93084 61.4269 9.91355 63.6663C10.9049 64.6261 11.5658 66.2257 11.5658 67.8252C11.5658 69.4248 10.9049 70.7045 9.91355 71.9842C8.92219 72.9439 7.60038 73.5838 5.94813 73.5838Z" fill="#FFD026"/>
<path d="M301.709 67.8205C301.709 64.6213 304.352 62.062 307.657 62.062C310.961 62.062 313.605 64.6213 313.605 67.8205C313.605 71.0197 310.961 73.5791 307.657 73.5791C304.683 73.5791 301.709 71.0197 301.709 67.8205ZM271.637 67.8205C271.637 64.6213 274.281 62.062 277.586 62.062C280.89 62.062 283.534 64.6213 283.534 67.8205C283.534 71.0197 280.89 73.5791 277.586 73.5791C274.281 73.5791 271.637 71.0197 271.637 67.8205ZM241.566 67.8205C241.566 64.6213 244.21 62.062 247.514 62.062C250.819 62.062 253.463 64.6213 253.463 67.8205C253.463 71.0197 250.819 73.5791 247.514 73.5791C244.21 73.5791 241.566 71.0197 241.566 67.8205ZM211.495 67.8205C211.495 64.6213 214.139 62.062 217.443 62.062C220.748 62.062 223.392 64.6213 223.392 67.8205C223.392 71.0197 220.748 73.5791 217.443 73.5791C213.808 73.5791 211.495 71.0197 211.495 67.8205ZM181.094 67.8205C181.094 64.6213 183.737 62.062 187.042 62.062C190.346 62.062 192.99 64.6213 192.99 67.8205C192.99 71.0197 190.346 73.5791 187.042 73.5791C183.737 73.5791 181.094 71.0197 181.094 67.8205ZM151.023 67.8205C151.023 64.6213 153.666 62.062 156.971 62.062C160.275 62.062 162.919 64.6213 162.919 67.8205C162.919 71.0197 160.275 73.5791 156.971 73.5791C153.666 73.5791 151.023 71.0197 151.023 67.8205ZM120.621 67.8205C120.621 64.6213 123.265 62.062 126.569 62.062C129.874 62.062 132.517 64.6213 132.517 67.8205C132.517 71.0197 129.874 73.5791 126.569 73.5791C123.265 73.5791 120.621 71.0197 120.621 67.8205ZM90.55 67.8205C90.55 64.6213 93.1936 62.062 96.4981 62.062C99.8027 62.062 102.446 64.6213 102.446 67.8205C102.446 71.0197 99.8027 73.5791 96.4981 73.5791C93.1936 73.5791 90.55 71.0197 90.55 67.8205ZM60.4789 67.8205C60.4789 64.6213 63.1225 62.062 66.4271 62.062C69.7316 62.062 72.3752 64.6213 72.3752 67.8205C72.3752 71.0197 69.7316 73.5791 66.4271 73.5791C63.1225 73.5791 60.4789 71.0197 60.4789 67.8205ZM30.0774 67.8205C30.0774 64.6213 32.721 62.062 36.0255 62.062C39.33 62.062 41.9736 64.6213 41.9736 67.8205C41.9736 71.0197 39.33 73.5791 36.0255 73.5791C32.721 73.5791 30.0774 71.0197 30.0774 67.8205Z" fill="#FFD026"/>
<path d="M338.053 73.5838C336.4 73.5838 335.078 72.9439 333.757 71.9842C332.765 71.0244 332.104 69.4248 332.104 67.8252C332.104 66.2257 332.765 64.946 333.757 63.6663C336.07 61.4269 340.035 61.4269 342.018 63.6663C343.009 64.6261 343.67 66.2257 343.67 67.8252C343.67 69.4248 343.009 70.7045 342.018 71.9842C341.027 72.9439 339.374 73.5838 338.053 73.5838Z" fill="#FFD026"/>
<path d="M5.94813 105.251C4.29587 105.251 2.97406 104.611 1.65226 103.652C0.660903 102.372 0 101.092 0 99.4927C0 97.8931 0.660903 96.6134 1.65226 95.3337C3.96542 93.0943 7.93084 93.0943 9.91355 95.3337C10.9049 96.2935 11.5658 97.8931 11.5658 99.4927C11.5658 101.092 10.9049 102.372 9.91355 103.652C8.92219 104.611 7.60038 105.251 5.94813 105.251Z" fill="#FFD026"/>
<path d="M301.709 99.4879C301.709 96.2887 304.352 93.7294 307.657 93.7294C310.961 93.7294 313.605 96.2887 313.605 99.4879C313.605 102.687 310.961 105.246 307.657 105.246C304.683 105.246 301.709 102.687 301.709 99.4879ZM271.637 99.4879C271.637 96.2887 274.281 93.7294 277.586 93.7294C280.89 93.7294 283.534 96.2887 283.534 99.4879C283.534 102.687 280.89 105.246 277.586 105.246C274.281 105.246 271.637 102.687 271.637 99.4879ZM241.566 99.4879C241.566 96.2887 244.21 93.7294 247.514 93.7294C250.819 93.7294 253.463 96.2887 253.463 99.4879C253.463 102.687 250.819 105.246 247.514 105.246C244.21 105.246 241.566 102.687 241.566 99.4879ZM211.165 99.4879C211.165 96.2887 213.808 93.7294 217.113 93.7294C220.417 93.7294 223.061 96.2887 223.061 99.4879C223.061 102.687 220.417 105.246 217.113 105.246C213.808 105.246 211.495 102.687 211.165 99.4879ZM181.094 99.4879C181.094 96.2887 183.737 93.7294 187.042 93.7294C190.346 93.7294 192.99 96.2887 192.99 99.4879C192.99 102.687 190.346 105.246 187.042 105.246C183.737 105.246 181.094 102.687 181.094 99.4879ZM151.023 99.4879C151.023 96.2887 153.666 93.7294 156.971 93.7294C160.275 93.7294 162.919 96.2887 162.919 99.4879C162.919 102.687 160.275 105.246 156.971 105.246C153.666 105.246 151.023 102.687 151.023 99.4879ZM120.621 99.4879C120.621 96.2887 123.265 93.7294 126.569 93.7294C129.874 93.7294 132.517 96.2887 132.517 99.4879C132.517 102.687 129.874 105.246 126.569 105.246C123.265 105.246 120.621 102.687 120.621 99.4879ZM90.55 99.4879C90.55 96.2887 93.1936 93.7294 96.4981 93.7294C99.8027 93.7294 102.446 96.2887 102.446 99.4879C102.446 102.687 99.8027 105.246 96.4981 105.246C93.1936 105.246 90.55 102.687 90.55 99.4879ZM60.4789 99.4879C60.4789 96.2887 63.1225 93.7294 66.4271 93.7294C69.7316 93.7294 72.3752 96.2887 72.3752 99.4879C72.3752 102.687 69.7316 105.246 66.4271 105.246C63.1225 105.246 60.4789 102.687 60.4789 99.4879ZM30.0774 99.4879C30.0774 96.2887 32.721 93.7294 36.0255 93.7294C39.33 93.7294 41.9736 96.2887 41.9736 99.4879C41.9736 102.687 39.33 105.246 36.0255 105.246C32.721 105.246 30.0774 102.687 30.0774 99.4879Z" fill="#FFD026"/>
<path d="M338.053 105.251C336.4 105.251 335.078 104.611 333.757 103.652C332.765 102.692 332.104 101.092 332.104 99.4927C332.104 97.8931 332.765 96.6134 333.757 95.3337C336.07 93.0943 340.035 93.0943 342.018 95.3337C343.009 96.2935 343.67 97.8931 343.67 99.4927C343.67 101.092 343.009 102.372 342.018 103.652C341.027 104.611 339.374 105.251 338.053 105.251Z" fill="#FFD026"/>
<path d="M5.94813 134.046C4.29587 134.046 2.97406 133.406 1.65226 132.446C0.660903 131.166 0 129.887 0 128.287C0 126.687 0.660903 125.408 1.65226 124.128C3.96542 121.889 7.93084 121.889 9.91355 124.128C10.9049 125.088 11.5658 126.687 11.5658 128.287C11.5658 129.887 10.9049 131.166 9.91355 132.446C8.92219 133.406 7.60038 134.046 5.94813 134.046Z" fill="#FFD026"/>
<path d="M338.053 134.046C336.4 134.046 335.078 133.406 333.757 132.446C332.765 131.486 332.104 129.887 332.104 128.287C332.104 126.687 332.765 125.408 333.757 124.128C336.07 121.889 340.035 121.889 342.018 124.128C343.009 125.088 343.67 126.687 343.67 128.287C343.67 129.887 343.009 131.166 342.018 132.446C341.027 133.406 339.374 134.046 338.053 134.046Z" fill="#FFD026"/>
</g>
<defs>
<clipPath id="clip0">
<rect width="344" height="122" fill="white"/>
</clipPath>
</defs>
</svg>
