<svg width="16" height="16" viewBox="0 0 16 16" fill="none" xmlns="http://www.w3.org/2000/svg">
<path fill-rule="evenodd" clip-rule="evenodd" d="M1.33325 6.46285V11.5747C1.33325 12.4199 1.86886 13.1624 2.69838 13.3246C3.79947 13.5399 5.56665 13.7778 7.99992 13.7778C10.4332 13.7778 12.2004 13.5399 13.3015 13.3246C14.131 13.1624 14.6666 12.4199 14.6666 11.5747V6.46293L9.66741 9.08186L9.64311 9.09459L9.61814 9.10597C8.58854 9.5753 7.41143 9.5753 6.38184 9.10597L6.35687 9.09459L6.33256 9.08185L1.33325 6.46285ZM1.43186 4.25669L7.23383 7.29618C7.72351 7.5119 8.27647 7.5119 8.76615 7.29618L14.568 4.25675C14.3773 3.68654 13.9215 3.24111 13.3015 3.11987C12.2004 2.90458 10.4332 2.66669 7.99992 2.66669C5.56665 2.66669 3.79947 2.90458 2.69838 3.11987C2.07837 3.2411 1.62256 3.68651 1.43186 4.25669Z" fill="#757575"/>
</svg>
