<svg width="411" height="290" viewBox="0 0 411 290" fill="none" xmlns="http://www.w3.org/2000/svg">
<g clip-path="url(#clip0)">
<path d="M209.906 289.385C222.268 289.385 232.289 279.352 232.289 266.975C232.289 254.598 222.268 244.565 209.906 244.565C197.544 244.565 187.523 254.598 187.523 266.975C187.523 279.352 197.544 289.385 209.906 289.385Z" fill="#FF9500"/>
<path d="M343.621 288.126C356.143 284.361 369.455 280.435 379.386 271.484C388.26 263.485 394.251 251.271 390.574 239.275C386.906 227.305 375.917 219.322 364.571 215.352C358.136 213.101 351.404 211.851 344.674 210.87C337.358 209.803 330.01 208.929 322.666 208.088C292.927 204.683 263.077 202.602 233.114 201.847C218.33 201.474 203.548 201.483 188.762 201.698C175.556 201.89 161.649 201.885 149.398 196.266C139.872 191.896 131.225 183.945 128.571 173.498C125.507 161.438 131.159 149.157 139.266 140.422C143.539 135.818 148.534 131.944 153.686 128.38C159.276 124.515 165.06 120.923 170.97 117.571C182.609 110.971 194.778 105.354 207.35 100.778C213.551 98.5206 219.845 96.5727 226.194 94.7757C231.554 93.2583 236.932 91.7387 242.112 89.6713C252.128 85.6746 261.654 78.9046 264.2 67.8059C266.614 57.2869 262.545 45.8678 255.41 38.0535C247.157 29.0129 234.712 25.0497 222.78 24.4085C209.386 23.6886 196.3 27.0451 183.71 31.305C170.282 35.8484 157.143 41.0726 143.432 44.7527C129.835 48.3985 115.975 50.9781 101.978 52.468C95.1254 53.1985 88.0662 54.0234 81.1733 53.4642C75.3964 52.9954 69.649 51.2944 65.3916 47.1894C61.741 43.6697 59.5664 38.8323 60.314 33.7275C60.4498 32.8003 61.8566 33.1945 61.7216 34.116C60.8115 40.3301 65.0303 46.0562 70.229 48.9893C76.2373 52.3793 83.5486 52.3839 90.2379 51.9962C104.742 51.1191 119.148 49.0339 133.307 45.7624C147.22 42.5808 160.635 38.0326 174.036 33.1741C186.762 28.5598 199.774 24.0561 213.37 23.0567C225.168 22.1895 237.579 23.9103 247.856 30.0834C256.889 35.5086 263.531 44.5561 265.648 54.9384C267.716 65.0838 264.852 75.2953 257.181 82.375C249.24 89.7053 238.35 92.8393 228.202 95.7256C215.331 99.3865 202.736 103.666 190.545 109.222C178.188 114.838 166.336 121.509 155.122 129.161C144.298 136.568 133.615 145.887 130.192 159.099C128.597 165.254 128.891 171.782 131.56 177.595C133.932 182.764 137.84 187.112 142.392 190.465C153.252 198.467 166.941 200.11 180.06 200.273C194.794 200.457 209.529 199.959 224.268 200.201C254.305 200.695 284.282 202.526 314.196 205.693C321.692 206.488 329.179 207.366 336.656 208.327C343.381 209.193 350.129 210.052 356.741 211.589C368.497 214.321 379.938 219.575 387.245 229.555C390.488 233.881 392.498 239.008 393.058 244.388C393.57 250.002 392.197 255.627 389.662 260.621C384.051 271.675 373.54 278.707 362.378 283.326C356.399 285.8 350.198 287.675 344.009 289.536C343.107 289.807 342.722 288.397 343.621 288.126L343.621 288.126Z" fill="#16A75C"/>
<path d="M61.2566 45.5514C67.7061 45.5514 72.9345 40.3166 72.9345 33.8591C72.9345 27.4016 67.7061 22.1667 61.2566 22.1667C54.8071 22.1667 49.5787 27.4016 49.5787 33.8591C49.5787 40.3166 54.8071 45.5514 61.2566 45.5514Z" fill="#16A75C"/>
<path d="M142.272 67.7182C148.721 67.7182 153.95 62.4833 153.95 56.0258C153.95 49.5683 148.721 44.3335 142.272 44.3335C135.822 44.3335 130.594 49.5683 130.594 56.0258C130.594 62.4833 135.822 67.7182 142.272 67.7182Z" fill="#16A75C"/>
<path d="M210.879 23.3847C217.329 23.3847 222.557 18.1498 222.557 11.6923C222.557 5.23484 217.329 0 210.879 0C204.43 0 199.201 5.23484 199.201 11.6923C199.201 18.1498 204.43 23.3847 210.879 23.3847Z" fill="#16A75C"/>
<path d="M253.698 73.0771C260.148 73.0771 265.376 67.8422 265.376 61.3847C265.376 54.9272 260.148 49.6924 253.698 49.6924C247.248 49.6924 242.02 54.9272 242.02 61.3847C242.02 67.8422 247.248 73.0771 253.698 73.0771Z" fill="#16A75C"/>
<path d="M195.795 130.564C202.245 130.564 207.473 125.33 207.473 118.872C207.473 112.415 202.245 107.18 195.795 107.18C189.346 107.18 184.117 112.415 184.117 118.872C184.117 125.33 189.346 130.564 195.795 130.564Z" fill="#16A75C"/>
<path d="M122.322 158.334C128.772 158.334 134 153.099 134 146.641C134 140.184 128.772 134.949 122.322 134.949C115.873 134.949 110.644 140.184 110.644 146.641C110.644 153.099 115.873 158.334 122.322 158.334Z" fill="#16A75C"/>
<path d="M200.174 201.693C206.624 201.693 211.852 196.458 211.852 190C211.852 183.543 206.624 178.308 200.174 178.308C193.725 178.308 188.497 183.543 188.497 190C188.497 196.458 193.725 201.693 200.174 201.693Z" fill="#16A75C"/>
<path d="M283.866 226.052C290.315 226.052 295.544 220.817 295.544 214.36C295.544 207.902 290.315 202.667 283.866 202.667C277.416 202.667 272.188 207.902 272.188 214.36C272.188 220.817 277.416 226.052 283.866 226.052Z" fill="#16A75C"/>
<path d="M381.668 220.693C388.117 220.693 393.346 215.458 393.346 209.001C393.346 202.543 388.117 197.308 381.668 197.308C375.218 197.308 369.99 202.543 369.99 209.001C369.99 215.458 375.218 220.693 381.668 220.693Z" fill="#16A75C"/>
<path d="M207.508 33.13C172.527 33.3774 143.885 61.8395 143.389 96.8612C143.384 97.1845 143.382 99.4581 143.382 102.432C143.382 106.792 145.112 110.973 148.191 114.056C151.27 117.139 155.446 118.872 159.801 118.872H159.801C161.96 118.872 164.097 118.445 166.091 117.617C168.085 116.79 169.897 115.576 171.422 114.047C172.948 112.518 174.158 110.703 174.982 108.706C175.807 106.708 176.23 104.568 176.229 102.407C176.227 100.384 176.226 98.9837 176.226 98.8977C176.225 93.4852 177.631 88.1655 180.306 83.4621C182.981 78.7587 186.833 74.8335 191.483 72.0727C196.132 69.3118 201.42 67.8104 206.825 67.7162C212.23 67.622 217.566 68.9381 222.309 71.5351C227.052 74.1322 231.038 77.9207 233.875 82.528C236.712 87.1353 238.302 92.4027 238.489 97.812C238.677 103.221 237.454 108.586 234.942 113.379C232.43 118.172 228.716 122.227 224.164 125.147L224.169 125.154C224.169 125.154 200.8 140.217 193.675 160.881L193.681 160.883C192.428 165.116 191.793 169.508 191.796 173.924C191.796 175.738 191.903 191.619 192.109 204.508C192.181 208.955 193.996 213.195 197.163 216.315C200.33 219.434 204.595 221.181 209.037 221.18H209.037C211.269 221.18 213.479 220.738 215.54 219.879C217.601 219.021 219.472 217.763 221.046 216.178C222.619 214.593 223.864 212.711 224.708 210.643C225.553 208.574 225.981 206.358 225.967 204.124C225.895 192.32 225.857 178.575 225.857 177.577C225.857 164.889 238.082 152.247 248.124 144.002C259.688 134.509 268.01 121.571 271.352 106.977C272.092 103.972 272.5 100.895 272.568 97.8016C272.568 89.2692 270.882 80.8212 267.607 72.9443C264.331 65.0674 259.532 57.9172 253.484 51.9058C247.437 45.8943 240.261 41.1405 232.37 37.918C224.479 34.6956 216.03 33.0683 207.508 33.13Z" fill="#FF9500"/>
<path d="M410.421 290H0.579394C0.426028 290 0.2791 289.938 0.170811 289.83C0.0625226 289.721 0.00170898 289.574 0.00170898 289.42C0.00170898 289.266 0.0625226 289.119 0.170811 289.01C0.2791 288.902 0.426028 288.84 0.579394 288.84H410.421C410.574 288.84 410.722 288.901 410.83 289.01C410.939 289.119 411 289.266 411 289.42C411 289.574 410.939 289.721 410.83 289.83C410.722 289.939 410.574 290 410.421 290Z" fill="#FFEEB4"/>
<path d="M305.789 132.998C313.851 132.998 320.386 126.455 320.386 118.383C320.386 110.311 313.851 103.768 305.789 103.768C297.727 103.768 291.192 110.311 291.192 118.383C291.192 126.455 297.727 132.998 305.789 132.998Z" fill="#133C6B"/>
<path d="M278.815 283.602H272.85L270.012 260.564H278.816L278.815 283.602Z" fill="#A0616A"/>
<path d="M268.589 281.895H280.093V289.148H261.345C261.345 288.195 261.532 287.252 261.896 286.372C262.26 285.492 262.794 284.693 263.467 284.02C264.139 283.346 264.938 282.812 265.817 282.447C266.695 282.083 267.637 281.895 268.589 281.895Z" fill="#133C6B"/>
<path d="M325.04 283.602H319.075L316.236 260.564H325.041L325.04 283.602Z" fill="#A0616A"/>
<path d="M314.813 281.895H326.318V289.148H307.57C307.57 288.195 307.757 287.252 308.121 286.372C308.485 285.492 309.019 284.693 309.691 284.02C310.364 283.346 311.163 282.812 312.041 282.447C312.92 282.083 313.862 281.895 314.813 281.895Z" fill="#133C6B"/>
<path d="M303.571 133.084C310.171 133.084 315.522 127.726 315.522 121.118C315.522 114.51 310.171 109.152 303.571 109.152C296.97 109.152 291.62 114.51 291.62 121.118C291.62 127.726 296.97 133.084 303.571 133.084Z" fill="#A0616A"/>
<path d="M310.694 171.685L316.041 159.384C317.34 156.498 317.712 153.28 317.106 150.174C316.501 147.067 314.947 144.225 312.66 142.04C312.19 141.575 311.691 141.141 311.166 140.74C308.527 138.673 305.276 137.547 301.926 137.539C299.673 137.548 297.449 138.043 295.406 138.991C295.23 139.069 295.06 139.151 294.885 139.234C294.549 139.395 294.218 139.57 293.897 139.751C291.802 140.955 290.02 142.635 288.693 144.656C287.366 146.677 286.532 148.982 286.258 151.385L283.898 171.184C283.304 172.738 262.128 228.861 269.534 271.708C269.613 272.166 269.836 272.586 270.17 272.908C270.505 273.23 270.933 273.436 271.393 273.496L278.901 274.519C279.449 274.595 280.005 274.459 280.458 274.14C280.91 273.821 281.225 273.342 281.339 272.8L293.936 212.677C294.015 212.303 294.216 211.967 294.508 211.721C294.8 211.476 295.165 211.335 295.547 211.322C295.928 211.309 296.302 211.425 296.61 211.65C296.918 211.875 297.141 212.197 297.245 212.565L315.044 275.791C315.171 276.25 315.444 276.655 315.823 276.944C316.202 277.233 316.665 277.389 317.141 277.389C317.283 277.388 317.425 277.375 317.564 277.35L326.736 275.581C327.269 275.482 327.746 275.186 328.073 274.753C328.4 274.319 328.553 273.779 328.503 273.238C327.155 258.189 319.992 182.808 310.694 171.685Z" fill="#133C6B"/>
<path d="M257.127 131.076C257.044 131.787 257.118 132.508 257.343 133.188C257.569 133.868 257.94 134.49 258.432 135.01C258.923 135.53 259.522 135.936 260.188 136.2C260.853 136.463 261.568 136.577 262.282 136.534L268.962 152.607L274.015 145.107L266.897 130.994C266.745 129.798 266.16 128.699 265.253 127.906C264.346 127.112 263.18 126.68 261.975 126.69C260.771 126.7 259.612 127.152 258.719 127.961C257.825 128.769 257.259 129.877 257.127 131.076L257.127 131.076Z" fill="#A0616A"/>
<path d="M302.908 187.87C303.618 187.785 304.301 187.545 304.909 187.167C305.517 186.789 306.034 186.282 306.425 185.683C306.816 185.083 307.071 184.404 307.171 183.695C307.272 182.986 307.217 182.264 307.008 181.579L321.063 171.329L312.601 168.156L300.552 178.376C299.425 178.803 298.495 179.628 297.935 180.696C297.376 181.764 297.228 183 297.518 184.171C297.809 185.341 298.518 186.364 299.511 187.046C300.505 187.727 301.713 188.021 302.908 187.87Z" fill="#A0616A"/>
<path d="M279.996 163.323C279.457 163.322 278.92 163.269 278.391 163.165C277.113 162.921 275.914 162.366 274.9 161.549C273.886 160.732 273.089 159.678 272.578 158.48L263.219 147.054C263.021 146.812 262.877 146.531 262.796 146.229C262.716 145.927 262.701 145.612 262.752 145.304C262.803 144.996 262.919 144.702 263.093 144.442C263.267 144.183 263.494 143.964 263.759 143.799L270.418 139.672C270.664 139.52 270.937 139.418 271.223 139.372C271.508 139.326 271.8 139.337 272.081 139.404C272.362 139.472 272.627 139.595 272.861 139.765C273.094 139.936 273.292 140.151 273.442 140.398L280.038 151.279L292.67 141.932C293.676 141.404 294.838 141.256 295.944 141.515C297.05 141.773 298.026 142.422 298.693 143.342C299.361 144.262 299.676 145.391 299.58 146.524C299.485 147.657 298.986 148.718 298.174 149.513L285.565 161.028C284.084 162.499 282.082 163.324 279.996 163.323Z" fill="#133C6B"/>
<path d="M314.129 180.507C314.112 180.507 314.095 180.507 314.078 180.507C313.771 180.499 313.469 180.427 313.191 180.295C312.914 180.164 312.667 179.975 312.467 179.742L306.547 172.827C306.346 172.591 306.196 172.316 306.109 172.018C306.021 171.72 305.998 171.408 306.041 171.1C306.083 170.793 306.19 170.498 306.354 170.236C306.519 169.973 306.737 169.748 306.995 169.576L318.08 162.177L308.038 150.089C307.454 149.114 307.239 147.961 307.434 146.84C307.629 145.72 308.22 144.708 309.099 143.987C309.977 143.267 311.086 142.888 312.221 142.918C313.356 142.949 314.443 143.387 315.282 144.154L327.487 156.096C328.447 156.974 329.181 158.073 329.624 159.298C330.067 160.523 330.206 161.837 330.03 163.128C329.855 164.418 329.369 165.647 328.614 166.708C327.859 167.77 326.859 168.632 325.698 169.22L315.723 179.819C315.518 180.036 315.271 180.209 314.997 180.327C314.723 180.446 314.428 180.507 314.129 180.507Z" fill="#133C6B"/>
<path d="M300.532 155.028C300.437 155.028 300.342 155.022 300.248 155.01C299.836 154.96 299.446 154.792 299.126 154.527C298.806 154.262 298.569 153.911 298.442 153.515L293.994 139.859C293.883 139.514 293.9 139.14 294.042 138.807C294.185 138.473 294.443 138.202 294.77 138.045L294.914 137.977C295.045 137.914 295.174 137.853 295.307 137.794C297.381 136.83 299.639 136.328 301.926 136.321C304.894 136.326 307.796 137.2 310.276 138.833C310.608 139.055 310.841 139.398 310.923 139.789C311.005 140.181 310.93 140.589 310.715 140.925L302.37 154.015C302.174 154.326 301.903 154.582 301.581 154.759C301.26 154.936 300.899 155.029 300.532 155.028Z" fill="#E6E6E6"/>
<path d="M317.298 111.858C319.936 111.858 322.074 109.717 322.074 107.076C322.074 104.434 319.936 102.293 317.298 102.293C314.66 102.293 312.521 104.434 312.521 107.076C312.521 109.717 314.66 111.858 317.298 111.858Z" fill="#133C6B"/>
<path d="M300.923 101.819C297.568 101.819 294.35 103.153 291.978 105.529C289.605 107.904 288.272 111.126 288.272 114.486V119.845H294.855L298.004 114.486L298.949 119.845H318.927L313.574 114.486C313.574 111.126 312.241 107.904 309.869 105.529C307.496 103.153 304.279 101.819 300.923 101.819Z" fill="#133C6B"/>
<path d="M319.753 103.8C320.281 102.146 321.375 100.732 322.841 99.8054C324.308 98.8791 326.054 98.5002 327.772 98.7352C330.816 99.2447 333.223 101.695 334.657 104.431C336.091 107.167 336.753 110.23 337.717 113.165C338.681 116.1 340.048 119.052 342.482 120.952C344.916 122.852 348.65 123.368 351.041 121.413C350.768 123.45 349.862 125.35 348.451 126.843C347.041 128.337 345.197 129.349 343.181 129.735C341.165 130.122 339.078 129.865 337.216 128.999C335.354 128.133 333.811 126.703 332.805 124.912C331.544 122.665 331.218 120.032 330.844 117.482C330.47 114.932 329.984 112.293 328.479 110.203C326.973 108.113 324.154 106.747 321.762 107.699L319.753 103.8Z" fill="#133C6B"/>
<path d="M164.437 111.096C160.083 111.095 155.906 109.363 152.827 106.28C149.748 103.197 148.018 99.0155 148.018 94.6555C148.018 91.6818 148.02 89.4083 148.024 89.085C148.163 78.8997 150.725 68.8942 155.498 59.8986C147.656 70.6472 143.344 83.5702 143.159 96.8799C143.154 97.2032 143.152 99.4767 143.152 102.45C143.152 106.81 144.882 110.992 147.962 114.075C151.041 117.158 155.217 118.89 159.571 118.891C163.15 118.889 166.63 117.719 169.483 115.556C172.336 113.394 174.406 110.359 175.379 106.911C172.373 109.61 168.475 111.101 164.437 111.096Z" fill="#FFEEB4"/>
<path d="M208.621 67.7714C213.656 68.0121 218.556 69.4726 222.903 72.0274C227.249 74.5822 230.911 78.1549 233.574 82.4389C236.238 86.7229 237.823 91.5901 238.194 96.6227C238.565 101.655 237.71 106.703 235.704 111.332C238.606 107.919 240.739 103.919 241.958 99.6063C243.177 95.2931 243.452 90.7675 242.766 86.3381C242.079 81.9086 240.447 77.6794 237.98 73.9389C235.513 70.1983 232.27 67.0343 228.471 64.6626C224.672 62.2909 220.407 60.7671 215.967 60.1954C211.526 59.6236 207.015 60.0172 202.74 61.3493C198.466 62.6814 194.528 64.9207 191.196 67.9146C187.864 70.9084 185.216 74.5864 183.433 78.6978C186.515 75.067 190.39 72.1936 194.757 70.2992C199.124 68.4048 203.868 67.5399 208.621 67.7714Z" fill="#FFEEB4"/>
<path d="M213.673 213.404C209.231 213.405 204.966 211.657 201.799 208.538C198.632 205.419 196.817 201.179 196.745 196.731C196.539 183.842 196.432 167.962 196.432 166.147C196.429 161.732 197.064 157.34 198.317 153.106L198.311 153.105C199.051 150.98 199.944 148.912 200.984 146.917C197.792 151.177 195.251 155.89 193.445 160.9L193.451 160.901C192.198 165.135 191.564 169.527 191.567 173.942C191.567 175.757 191.673 191.637 191.879 204.526C191.951 208.973 193.767 213.214 196.933 216.333C200.1 219.452 204.365 221.2 208.807 221.199C212.47 221.198 216.034 220.008 218.964 217.808C221.894 215.608 224.033 212.516 225.06 208.996C221.947 211.837 217.885 213.41 213.673 213.404Z" fill="#FFEEB4"/>
<path d="M61.572 283.824L67.537 283.824L70.3752 260.786L61.5706 260.786L61.572 283.824Z" fill="#FFB8B8"/>
<path d="M79.0419 289.37L60.2937 289.37L60.2934 282.118L71.7979 282.117C73.7191 282.117 75.5615 282.881 76.92 284.241C78.2785 285.601 79.0418 287.446 79.0419 289.37L79.0419 289.37Z" fill="#133C6B"/>
<path d="M40.1626 283.824L46.1275 283.824L48.9658 260.786L40.1611 260.786L40.1626 283.824Z" fill="#FFB8B8"/>
<path d="M57.6324 289.37L38.8843 289.37L38.8839 282.118L50.3885 282.117C52.3096 282.117 54.1521 282.881 55.5106 284.241C56.8691 285.601 57.6324 287.446 57.6324 289.37L57.6324 289.37Z" fill="#133C6B"/>
<path d="M45.3754 276.739L39.5487 276.432C39.2482 276.416 38.9539 276.341 38.6827 276.21C38.4116 276.08 38.169 275.897 37.969 275.672C37.769 275.447 37.6157 275.184 37.5178 274.899C37.4199 274.614 37.3794 274.313 37.3987 274.012L44.363 196.811L76.4338 205.475L79.5236 204.631L69.861 272.975C69.7787 273.49 69.5237 273.96 69.1382 274.31C68.7526 274.659 68.2596 274.866 67.7404 274.897L61.4593 275.19C61.1452 275.208 60.8309 275.16 60.5363 275.049C60.2417 274.939 59.9731 274.769 59.7476 274.549C59.5221 274.33 59.3445 274.065 59.2261 273.774C59.1077 273.482 59.0511 273.169 59.0597 272.854L60.1978 231.835C60.2031 231.645 60.1373 231.461 60.0133 231.317C59.8893 231.174 59.7162 231.082 59.5279 231.06C59.3397 231.038 59.15 231.087 58.9963 231.198C58.8427 231.309 58.7361 231.474 58.6976 231.66L47.7219 274.927C47.6183 275.441 47.3401 275.902 46.9347 276.233C46.5293 276.564 46.0218 276.744 45.4987 276.742C45.4579 276.742 45.4168 276.741 45.3754 276.739Z" fill="#133C6B"/>
<path d="M62.643 133.643C69.2433 133.643 74.5938 128.286 74.5938 121.678C74.5938 115.069 69.2433 109.712 62.643 109.712C56.0427 109.712 50.6921 115.069 50.6921 121.678C50.6921 128.286 56.0427 133.643 62.643 133.643Z" fill="#FFB8B8"/>
<path d="M42.7457 156.832L44.0597 185.219L44.5347 195.546C44.5537 195.996 44.7061 196.43 44.9726 196.792C45.2391 197.154 45.6075 197.429 46.0306 197.581L76.8485 208.758C77.0974 208.851 77.3612 208.897 77.6268 208.895C77.9304 208.896 78.2311 208.836 78.511 208.719C78.791 208.601 79.0445 208.429 79.2563 208.211C79.4681 207.993 79.6339 207.735 79.7438 207.452C79.8537 207.168 79.9055 206.866 79.896 206.562L78.6326 155.522C78.5496 151.334 77.01 147.307 74.2793 144.134C71.5485 140.961 67.7977 138.841 63.6734 138.14C63.3753 138.095 63.072 138.049 62.7688 138.009C60.2114 137.691 57.6155 137.938 55.1637 138.733C52.712 139.527 50.4639 140.85 48.5777 142.608C46.6246 144.407 45.0899 146.613 44.0822 149.071C43.0744 151.529 42.6181 154.178 42.7457 156.832L42.7457 156.832Z" fill="#CCCCCC"/>
<path d="M91.5701 203.094C90.8412 202.867 90.1753 202.474 89.6254 201.944C89.0756 201.414 88.6571 200.762 88.4033 200.042C88.1495 199.321 88.0675 198.551 88.1638 197.793C88.26 197.035 88.532 196.31 88.9578 195.676L78.5071 181.762L87.5254 181.203L96.067 194.502C96.9814 195.21 97.6177 196.217 97.8643 197.348C98.1109 198.478 97.952 199.66 97.4155 200.685C96.879 201.71 95.9992 202.513 94.9304 202.954C93.8615 203.394 92.6719 203.444 91.5701 203.094H91.5701Z" fill="#FFB8B8"/>
<path d="M84.2222 193.158C83.9453 193.045 83.6935 192.879 83.4813 192.668C83.269 192.458 83.1006 192.207 82.9858 191.931L67.241 154.372C66.9321 153.637 66.7709 152.848 66.7667 152.05C66.7625 151.252 66.9153 150.461 67.2165 149.723C67.5177 148.984 67.9613 148.312 68.5219 147.745C69.0826 147.179 69.7493 146.728 70.484 146.419C71.2187 146.11 72.007 145.95 72.8038 145.946C73.6005 145.942 74.3902 146.096 75.1277 146.398C75.8651 146.7 76.5358 147.145 77.1016 147.707C77.6673 148.269 78.1169 148.936 78.4247 149.672L94.1695 187.232C94.4022 187.789 94.4047 188.415 94.1767 188.974C93.9486 189.533 93.5084 189.978 92.9528 190.212L85.9629 193.15C85.6877 193.266 85.3922 193.327 85.0934 193.328C84.7946 193.33 84.4985 193.272 84.2222 193.158L84.2222 193.158Z" fill="#CCCCCC"/>
<path d="M58.8007 191.833L73.9231 162.842C74.2147 162.284 74.7153 161.865 75.3151 161.677C75.9149 161.488 76.5648 161.546 77.1223 161.836L99.0726 173.314C99.6295 173.606 100.048 174.108 100.236 174.708C100.424 175.309 100.367 175.959 100.077 176.517L84.9541 205.509C84.6625 206.067 84.1619 206.486 83.5621 206.674C82.9624 206.862 82.3124 206.805 81.7549 206.514L59.8047 195.036C59.2478 194.744 58.8294 194.243 58.6411 193.643C58.4529 193.042 58.5103 192.391 58.8007 191.833Z" fill="#FFEEB4"/>
<path d="M68.9423 178.588C68.6735 177.872 68.2414 177.23 67.6806 176.712C67.1197 176.194 66.4457 175.814 65.7122 175.603C64.9787 175.392 64.2061 175.355 63.456 175.496C62.706 175.637 61.9992 175.952 61.3921 176.415L46.9026 166.791L46.8779 175.838L60.6412 183.59C61.4009 184.462 62.4431 185.038 63.585 185.218C64.7268 185.398 65.8954 185.169 66.8857 184.572C67.8761 183.975 68.6249 183.049 69.001 181.954C69.377 180.86 69.3563 179.668 68.9423 178.588Z" fill="#FFB8B8"/>
<path d="M50.6227 180.622L38.781 171.23C37.4999 170.8 36.3424 170.064 35.4077 169.087C34.4731 168.11 33.7892 166.92 33.4149 165.62C33.0405 164.32 32.9868 162.948 33.2584 161.623C33.5301 160.298 34.1188 159.058 34.9743 158.011L45.7262 143.902C46.4734 142.988 47.5242 142.373 48.6866 142.171C49.8489 141.969 51.0452 142.192 52.0566 142.8C53.0681 143.408 53.8273 144.36 54.1953 145.483C54.5634 146.605 54.5157 147.822 54.0611 148.912L45.5539 162.846L58.056 168.783C58.3467 168.921 58.6049 169.119 58.8134 169.365C59.0219 169.61 59.1761 169.897 59.2657 170.206C59.3553 170.516 59.3783 170.841 59.3331 171.159C59.288 171.478 59.1758 171.784 59.0039 172.057L53.9573 180.053C53.7866 180.323 53.5613 180.554 53.2959 180.731C53.0305 180.908 52.7308 181.028 52.4164 181.082C52.4039 181.084 52.3913 181.086 52.3788 181.088C52.0698 181.134 51.7546 181.117 51.4525 181.037C51.1505 180.957 50.868 180.816 50.6227 180.622Z" fill="#CCCCCC"/>
<path d="M53.6126 129.69C53.5613 129.54 53.545 129.38 53.565 129.222C53.585 129.065 53.6408 128.914 53.7279 128.782C53.8151 128.649 53.9315 128.538 54.068 128.458C54.2046 128.377 54.3578 128.329 54.5158 128.317C54.8395 128.334 55.1563 128.417 55.447 128.561C55.7377 128.705 55.9963 128.906 56.2072 129.152C56.6397 129.652 57.1432 130.084 57.7016 130.437C58.2797 130.729 59.0638 130.687 59.3933 130.131C59.7028 129.609 59.4908 128.909 59.3034 128.302C58.8267 126.759 58.5599 125.158 58.5103 123.543C58.4564 121.74 58.7104 119.858 59.7072 118.452C60.9936 116.638 63.2939 115.949 65.4709 115.999C67.6479 116.049 69.7895 116.722 71.9458 117.147C72.6903 117.294 73.5653 117.369 74.0632 116.791C74.5926 116.177 74.3982 115.183 74.173 114.353C73.5886 112.201 72.9687 109.976 71.611 108.238C70.1431 106.432 68.0461 105.25 65.7425 104.93C63.5309 104.656 61.2859 104.911 59.192 105.675C55.7806 106.751 52.7787 108.845 50.588 111.676C48.3296 114.687 47.3538 118.47 47.8738 122.199C48.3818 125.447 50.1007 128.381 52.684 130.411L53.6126 129.69Z" fill="#133C6B"/>
<path d="M204.975 283.919C201.795 282.533 198.981 280.425 196.754 277.763C194.527 275.101 192.949 271.957 192.143 268.58C191.338 265.203 191.327 261.684 192.113 258.302C192.898 254.92 194.458 251.767 196.669 249.091C194.105 250.965 191.969 253.364 190.402 256.127C188.836 258.891 187.874 261.956 187.581 265.121C187.288 268.285 187.67 271.475 188.703 274.48C189.736 277.485 191.395 280.236 193.57 282.55C195.746 284.864 198.388 286.688 201.321 287.901C204.255 289.114 207.412 289.689 210.585 289.587C213.757 289.485 216.871 288.709 219.721 287.309C222.571 285.91 225.09 283.92 227.113 281.471C223.958 283.78 220.254 285.221 216.37 285.651C212.486 286.08 208.557 285.483 204.975 283.919Z" fill="#FFEEB4"/>
</g>
<defs>
<clipPath id="clip0">
<rect width="411" height="290" fill="white"/>
</clipPath>
</defs>
</svg>
